<?xml version="1.0" encoding="utf-8"?>
<!-- Generator: Adobe Illustrator 21.0.2, SVG Export Plug-In . SVG Version: 6.00 Build 0)  -->
<svg version="1.1" id="レイヤー_1" xmlns="http://www.w3.org/2000/svg" xmlns:xlink="http://www.w3.org/1999/xlink" x="0px"
	 y="0px" viewBox="0 0 217 536" style="enable-background:new 0 0 217 536;" xml:space="preserve">
<style type="text/css">
	.st0{fill-rule:evenodd;clip-rule:evenodd;fill:#FFFFFF;}
</style>
<g>
	<path class="st0" d="M72.3,35.2c23.4,0.2,59.1,8.4,60.8-15.2c-4.4-19.3-47-20.5-60.8-7.6C53.6,23.9,66.1,26.7,72.3,35.2z"/>
	<path class="st0" d="M146.4,263c-19.2-57.5-23.5-143-20.9-220.2c-17.7,0-35.5,0-53.2,0c0,48.8,5.1,159.9-7.6,220.4
		c-13.1,27.4-47.1,33.9-60.8,60.8c0,73.5,8.8,140,25.8,196.3c54.5,9.6,119.1,14.5,155.9-1.9c17.2-51.2,28.5-126,27.7-195.1
		C216.2,305.1,154.1,285.9,146.4,263z"/>
</g>
</svg>
